<?xml version="1.0" encoding="UTF-8"?>
<svg width="300" height="300" version="1.1" viewBox="0 0 300 300" xmlns="http://www.w3.org/2000/svg">
 <g fill="#4CAF50">
  <path d="m150 20c-12.15 0-22 9.85-22 22v66h-66c-12.15 0-22 9.85-22 22s9.85 22 22 22h66v66c0 12.15 9.85 22 22 22s22-9.85 22-22v-66h66c12.15 0 22-9.85 22-22s-9.85-22-22-22h-66v-66c0-12.15-9.85-22-22-22z"/>
  <path d="m150 0c-82.71 0-150 67.29-150 150s67.29 150 150 150 150-67.29 150-150-67.29-150-150-150zm0 270c-66.17 0-120-53.83-120-120s53.83-120 120-120 120 53.83 120 120-53.83 120-120 120z"/>
 </g>
</svg>
